<svg width="54" height="52" viewBox="0 0 54 52" fill="none" xmlns="http://www.w3.org/2000/svg">
<ellipse cx="27" cy="26" rx="27" ry="26" fill="#FFE812"/>
<path d="M26.9892 12.4346C18.5473 12.4346 11.7393 17.6721 11.7393 24.0305C11.7393 28.1577 14.5714 31.7717 18.8196 33.8351L17.3818 38.9996C17.3546 39.0768 17.3505 39.16 17.3697 39.2394C17.389 39.3189 17.4308 39.392 17.4907 39.4499C17.578 39.5238 17.6902 39.5647 17.8066 39.565C17.9031 39.5577 17.9946 39.5209 18.068 39.4604L24.2552 35.4485C25.1685 35.5696 26.0891 35.6325 27.0111 35.6369C35.4422 35.6369 42.261 30.3994 42.261 24.0305C42.261 17.6616 35.4202 12.4346 26.9892 12.4346Z" fill="#392020"/>
</svg>
