<svg width="31" height="30" viewBox="0 0 31 30" fill="none" xmlns="http://www.w3.org/2000/svg">
<g clip-path="url(#clip0_60_1494)">
<path d="M17.0037 14.4794L17.0038 14.4794C17.0086 14.4843 17.0131 14.487 17.0173 14.4887C17.022 14.4906 17.0275 14.4917 17.0335 14.4917C17.0394 14.4917 17.0449 14.4906 17.0495 14.4887C17.0538 14.487 17.0582 14.4844 17.0629 14.4796L17.0631 14.4794L19.051 12.493L19.2218 12.3224L19.4632 12.3176L24.9376 12.2086C26.3456 12.1805 27.4866 11.5025 28.1122 10.3669L28.1122 10.3669C28.7884 9.13947 28.7672 7.60668 28.085 6.47826C27.4788 5.47546 26.4371 4.91751 25.0785 4.94422L25.0781 4.94422L24.8746 4.94808L24.2517 4.95987L24.2634 4.33689L24.2672 4.13232L24.2673 4.13171C24.2893 3.02266 23.9222 2.13133 23.2451 1.50533L23.2451 1.50531C22.6438 0.949342 21.8054 0.6193 20.8718 0.60075L20.8717 0.600749C19.9023 0.581434 18.9464 0.914416 18.2565 1.49657L17.0037 14.4794ZM17.0037 14.4794C16.4933 13.9686 15.9078 13.3833 15.2311 12.7067C15.0689 12.5446 14.9016 12.3773 14.7287 12.2045C14.7124 12.1881 14.7124 12.1615 14.7288 12.1451C14.7288 12.1451 14.7288 12.1451 14.7288 12.1451L16.7183 10.1556L16.8892 9.98478M17.0037 14.4794L16.8892 9.98478M16.8892 9.98478L16.894 9.74327M16.8892 9.98478L16.894 9.74327M16.894 9.74327L17.0029 4.27399L17.0029 4.27397M16.894 9.74327L17.0029 4.27397M17.0029 4.27397C17.032 2.81327 17.7068 1.9604 18.2564 1.4966L17.0029 4.27397Z" fill="#FFA200" fill-opacity="0.15" stroke="#FFDD33" stroke-width="1.2"/>
<mask id="path-2-inside-1_60_1494" fill="white">
<path d="M9.54203 30C9.37178 30 9.20847 29.9323 9.08806 29.8119L5.38044 26.1043C5.1297 25.8536 5.1297 25.4471 5.38044 25.1963C7.04005 23.5367 9.2038 21.3729 11.1843 19.3924C11.4351 19.1417 11.8415 19.1417 12.0923 19.3924L15.7999 23.1001C15.9203 23.2205 15.988 23.3839 15.9879 23.5542C15.9879 23.7245 15.9202 23.8879 15.7997 24.0082L13.864 25.9423C13.7436 26.0626 13.5804 26.1301 13.4102 26.1301C13.2399 26.1301 13.0763 26.0622 12.956 25.9418L12.2022 25.1869L11.1748 26.2144L11.9301 26.9698C12.1809 27.2206 12.1809 27.6271 11.9301 27.8778L9.99606 29.8119C9.87559 29.9323 9.71229 30 9.54203 30Z"/>
</mask>
<path d="M9.54203 30C9.37178 30 9.20847 29.9323 9.08806 29.8119L5.38044 26.1043C5.1297 25.8536 5.1297 25.4471 5.38044 25.1963C7.04005 23.5367 9.2038 21.3729 11.1843 19.3924C11.4351 19.1417 11.8415 19.1417 12.0923 19.3924L15.7999 23.1001C15.9203 23.2205 15.988 23.3839 15.9879 23.5542C15.9879 23.7245 15.9202 23.8879 15.7997 24.0082L13.864 25.9423C13.7436 26.0626 13.5804 26.1301 13.4102 26.1301C13.2399 26.1301 13.0763 26.0622 12.956 25.9418L12.2022 25.1869L11.1748 26.2144L11.9301 26.9698C12.1809 27.2206 12.1809 27.6271 11.9301 27.8778L9.99606 29.8119C9.87559 29.9323 9.71229 30 9.54203 30Z" fill="#FFA200" fill-opacity="0.15"/>
<path d="M5.8047 25.6206L11.6085 19.8167L10.76 18.9682L4.95617 24.7721L5.8047 25.6206ZM9.08806 29.8119L8.23954 30.6605L9.08806 29.8119ZM5.38044 26.1043L6.22897 25.2558L6.22897 25.2558L5.38044 26.1043ZM11.1843 19.3924L10.3358 18.5438L10.3357 18.5439L11.1843 19.3924ZM12.0923 19.3924L12.9408 18.5439L12.9407 18.5438L12.0923 19.3924ZM15.7999 23.1001L16.6486 22.2517L16.6484 22.2515L15.7999 23.1001ZM15.7997 24.0082L14.9516 23.1593L14.9516 23.1593L15.7997 24.0082ZM13.864 25.9423L13.0158 25.0934L13.0156 25.0936L13.864 25.9423ZM13.4102 26.1301L13.4098 27.3301H13.4102V26.1301ZM12.956 25.9418L13.8051 25.0939L13.8051 25.0938L12.956 25.9418ZM12.2022 25.1869L13.0513 24.339L12.2027 23.4892L11.3536 24.3384L12.2022 25.1869ZM11.1748 26.2144L10.3262 25.3659L9.47776 26.2144L10.3262 27.0629L11.1748 26.2144ZM11.9301 26.9698L11.0816 27.8183L11.0816 27.8183L11.9301 26.9698ZM9.54203 28.8C9.69008 28.8 9.83198 28.8588 9.93659 28.9634L8.23954 30.6605C8.58496 31.0059 9.05348 31.2 9.54203 31.2V28.8ZM9.93659 28.9634L6.22897 25.2558L4.53191 26.9528L8.23954 30.6605L9.93659 28.9634ZM6.22897 25.2558C6.44686 25.4737 6.44686 25.827 6.22897 26.0448L4.53191 24.3478C3.81254 25.0672 3.81254 26.2335 4.53191 26.9528L6.22897 25.2558ZM12.0327 20.2411C11.8149 20.4588 11.4616 20.4588 11.2438 20.2411L12.9407 18.5438C12.2213 17.8246 11.0552 17.8246 10.3358 18.5438L12.0327 20.2411ZM11.2437 20.241L14.9514 23.9486L16.6484 22.2515L12.9408 18.5439L11.2437 20.241ZM14.9512 23.9484C14.8469 23.844 14.7879 23.7022 14.7879 23.5538L17.1879 23.5546C17.1881 23.0655 16.9937 22.597 16.6486 22.2517L14.9512 23.9484ZM14.7879 23.5538C14.788 23.406 14.8467 23.2641 14.9516 23.1593L16.6478 24.8572C16.9937 24.5117 17.1878 24.043 17.1879 23.5546L14.7879 23.5538ZM14.9516 23.1593L13.0158 25.0934L14.7121 26.7912L16.6479 24.8571L14.9516 23.1593ZM13.0156 25.0936C13.1205 24.9888 13.2625 24.9301 13.4102 24.9301V27.3301C13.8983 27.3301 14.3667 27.1364 14.7123 26.791L13.0156 25.0936ZM13.4106 24.9301C13.5583 24.9302 13.7001 24.9887 13.8051 25.0939L12.1068 26.7897C12.4524 27.1357 12.9215 27.3299 13.4098 27.3301L13.4106 24.9301ZM13.8051 25.0938L13.0513 24.339L11.3531 26.0349L12.1068 26.7897L13.8051 25.0938ZM11.3536 24.3384L10.3262 25.3659L12.0233 27.0629L13.0507 26.0354L11.3536 24.3384ZM10.3262 27.0629L11.0816 27.8183L12.7787 26.1213L12.0233 25.3659L10.3262 27.0629ZM11.0816 27.8183C10.8637 27.6005 10.8637 27.2472 11.0816 27.0293L12.7787 28.7263C13.498 28.007 13.498 26.8407 12.7787 26.1213L11.0816 27.8183ZM11.0816 27.0293L9.14753 28.9634L10.8446 30.6604L12.7787 28.7263L11.0816 27.0293ZM9.14753 28.9634C9.25203 28.8589 9.39391 28.8 9.54203 28.8V31.2C10.0307 31.2 10.4992 31.0058 10.8446 30.6604L9.14753 28.9634ZM6.22897 26.0448C7.05877 25.215 8.01462 24.2592 9.01057 23.2632C10.0065 22.2673 11.0426 21.2312 12.0328 20.241L10.3357 18.5439C9.3455 19.5341 8.30944 20.5702 7.3135 21.5662C6.31755 22.5621 5.36171 23.518 4.53191 24.3478L6.22897 26.0448Z" fill="#FFDD33" mask="url(#path-2-inside-1_60_1494)"/>
<path d="M17.7654 14.2737L14.9347 11.443C14.6133 11.1217 14.1854 10.9447 13.7295 10.9447C13.2736 10.9447 12.8457 11.1217 12.5245 11.443L11.7518 12.2156C11.43 12.5374 11.2531 12.9662 11.2535 13.4231C11.2539 13.7945 11.3716 14.1469 11.5883 14.4373L1.64643 24.379C1.39569 24.6298 1.39569 25.0363 1.64643 25.287L3.92129 27.5619C4.04666 27.6873 4.21096 27.75 4.37526 27.75C4.5395 27.75 4.70386 27.6873 4.82917 27.562L14.7718 17.621C15.0719 17.8435 15.4294 17.955 15.7871 17.955C16.2236 17.955 16.6604 17.7893 16.9932 17.4577L17.7645 16.6848C18.0859 16.3647 18.2632 15.9372 18.2637 15.4812C18.2642 15.0243 18.0871 14.5955 17.7654 14.2737ZM4.37532 26.2L3.00839 24.8331L12.4835 15.3579L13.8508 16.726L4.37532 26.2ZM12.6589 13.7169C12.498 13.5559 12.4993 13.2839 12.6598 13.1235C12.6598 13.1235 13.4318 12.3516 13.4325 12.3509C13.5939 12.1895 13.8656 12.1898 14.0267 12.3509C14.0267 12.3509 16.8475 15.1717 16.8575 15.1816C17.0165 15.3407 17.0152 15.6187 16.8571 15.7764L16.0858 16.5493C15.9215 16.713 15.6541 16.713 15.4908 16.5504L12.6589 13.7169Z" fill="#FFDD33"/>
</g>
<defs>
<clipPath id="clip0_60_1494">
<rect width="30" height="30" fill="white" transform="translate(0.333374)"/>
</clipPath>
</defs>
</svg>
