<svg width="31" height="30" viewBox="0 0 31 30" fill="none" xmlns="http://www.w3.org/2000/svg">
<g clip-path="url(#clip0_60_1499)">
<path d="M18.0795 12.4991C18.0643 12.5184 18.0363 12.5218 18.0168 12.5066L17.9682 12.4683L17.9127 12.4408C16.2318 11.6068 14.251 11.7483 12.7674 12.7961C11.3379 13.8057 10.4385 15.6031 10.6286 18.0045C10.2487 17.7885 9.67519 17.4463 8.98417 16.9825L8.83248 16.8807H8.6498H2.3355C2.31858 16.8807 2.30314 16.8711 2.2956 16.8559C2.2881 16.8409 2.28975 16.8227 2.30001 16.8092L4.49595 13.9089L4.7956 13.5131L4.46298 13.1447C2.29717 10.7454 1.25654 8.35581 1.2667 6.00143C1.27466 4.47185 1.86679 3.0233 2.87324 2.01947L2.8733 2.01953L2.88052 2.01208C4.49446 0.345693 7.3 0.149309 9.18926 1.50555L9.18922 1.50559L9.19606 1.51036C9.707 1.8665 10.1417 2.30638 10.4853 2.80995L10.9809 3.53619L11.4765 2.81001C11.8202 2.30641 12.2549 1.86648 12.7659 1.51036C13.6157 0.917964 14.6135 0.604962 15.6546 0.604962C18.4419 0.604962 20.7095 2.87129 20.7095 5.65455C20.7095 7.91972 19.8184 10.2877 18.0795 12.4991Z" fill="#FFA200" fill-opacity="0.15" stroke="#FFDD33" stroke-width="1.2"/>
<path d="M25.0917 19.4966H15.6322C14.7779 19.4649 14.7785 18.2389 15.6322 18.2075H25.0917C25.9459 18.2392 25.9453 19.4653 25.0917 19.4966Z" fill="#FFDD33"/>
<path d="M23.671 22.7546H17.0527C16.1984 22.7229 16.1991 21.4969 17.0527 21.4655H23.671C24.5253 21.4972 24.5246 22.7233 23.671 22.7546Z" fill="#FFDD33"/>
<path d="M20.3415 29.995C20.2398 29.995 20.1391 29.9709 20.0477 29.9242C19.9461 29.8722 17.5293 28.6246 15.0784 26.4655C12.2503 23.9774 10.0087 20.8091 10.0238 17.2238C10.0324 15.5458 10.6811 13.9424 11.8066 12.8199C13.6368 10.9302 16.7765 10.7216 18.8963 12.2434C19.4666 12.6409 19.9531 13.1329 20.338 13.697C20.723 13.133 21.2094 12.6409 21.7798 12.2434C22.7307 11.5805 23.8483 11.2302 25.0116 11.2302C28.1298 11.2302 30.6665 13.7646 30.6665 16.8799C30.6665 19.2662 29.8065 21.6033 28.1093 23.8336L30.5304 27.0314C30.6781 27.2264 30.7026 27.4883 30.5937 27.7074C30.4848 27.9265 30.2612 28.065 30.0165 28.065H23.6606C22.8191 28.6716 22.0788 29.1275 21.5938 29.4094C20.6547 29.9552 20.5022 29.9781 20.4371 29.9878C20.4053 29.9926 20.3733 29.995 20.3415 29.995ZM11.312 17.289C11.2497 22.3807 17.1448 26.8673 20.3534 28.624C20.8086 28.3838 21.8297 27.8105 23.0697 26.9008C23.1803 26.8197 23.3138 26.7759 23.451 26.7759H28.7202L26.7816 24.2154C26.6025 23.9789 26.608 23.6508 26.7948 23.4204C28.5086 21.3061 29.3776 19.1055 29.3776 16.8798C29.3158 12.0682 22.7338 10.8573 20.939 15.3059C20.7289 15.8512 19.9469 15.8509 19.7371 15.3059C19.0896 13.6353 17.4462 12.5142 15.6524 12.5192C13.1225 12.4781 11.2645 14.8092 11.312 17.289Z" fill="#FFDD33"/>
</g>
<defs>
<clipPath id="clip0_60_1499">
<rect width="30" height="30" fill="white" transform="translate(0.666626)"/>
</clipPath>
</defs>
</svg>
