<svg width="30" height="30" viewBox="0 0 30 30" fill="none" xmlns="http://www.w3.org/2000/svg">
<g clip-path="url(#clip0_60_1516)">
<path d="M15 26.4032C12.5919 26.4032 10.3183 26.0459 8.59826 25.3971C6.68089 24.6738 5.625 23.6333 5.625 22.4671C5.625 21.7061 6.07109 20.6082 8.19606 19.6988C9.67154 19.0674 11.6876 18.6622 13.8729 18.5579L13.9341 19.8405C9.35041 20.0594 6.9091 21.5065 6.9091 22.4671C6.9091 23.5745 9.98718 25.1192 15.0001 25.1192C20.013 25.1192 23.0911 23.5745 23.0911 22.4671C23.0911 21.5065 20.6497 20.0594 16.066 19.8405L16.1272 18.5579C18.3126 18.6622 20.3286 19.0674 21.804 19.6988C23.929 20.6082 24.3751 21.7061 24.3751 22.4671C24.3751 23.6333 23.3192 24.6739 21.4018 25.3971C19.6817 26.0459 17.4082 26.4032 15 26.4032Z" fill="#5D5D5D"/>
<path d="M26.2679 18.227C24.1543 17.1083 21.281 16.3346 18.1188 16.026L25.1166 0.911837C25.2228 0.68246 25.1846 0.412111 25.0189 0.221256C24.8533 0.0302837 24.591 -0.0455915 24.349 0.0273071L15.0001 2.84076L5.65107 0.0273071C5.40908 -0.0455331 5.14679 0.0304004 4.98115 0.221256C4.81551 0.412111 4.77722 0.68246 4.88344 0.911837L11.8813 16.026C8.71911 16.3346 5.84583 17.1083 3.73218 18.227C1.32542 19.5007 0 21.1737 0 22.9378C0 24.9211 1.6284 26.7415 4.58531 28.0637C7.37781 29.3124 11.0765 30 15 30C18.9235 30 22.6222 29.3124 25.4147 28.0637C28.3716 26.7415 30 24.9211 30 22.9378C30.0001 21.1737 28.6746 19.5007 26.2679 18.227ZM14.815 4.12597C14.9357 4.16233 15.0644 4.16233 15.1851 4.12597L23.3513 1.66849L15 19.7058L6.64877 1.66849L14.815 4.12597ZM24.8906 26.8915C22.2594 28.068 18.7468 28.716 15.0001 28.716C11.2533 28.716 7.74073 28.068 5.10955 26.8915C2.67839 25.8044 1.28404 24.3634 1.28404 22.9378C1.28404 21.6723 2.36678 20.4024 4.33277 19.3618C6.40019 18.2677 9.27814 17.5252 12.4544 17.2638L14.4174 21.5036C14.5225 21.7306 14.7498 21.8759 15 21.8759C15.2502 21.8759 15.4775 21.7306 15.5826 21.5036L17.5456 17.2638C20.7219 17.5251 23.5999 18.2676 25.6672 19.3618C27.6332 20.4023 28.7159 21.6723 28.7159 22.9378C28.716 24.3634 27.3217 25.8044 24.8906 26.8915Z" fill="#464646"/>
</g>
<defs>
<clipPath id="clip0_60_1516">
<rect width="30" height="30" fill="white"/>
</clipPath>
</defs>
</svg>
