<svg width="34" height="30" viewBox="0 0 34 30" fill="none" xmlns="http://www.w3.org/2000/svg">
<path d="M17 30C16.8339 30 16.6678 29.9417 16.5324 29.825C15.2305 28.7042 13.9997 27.6642 12.8095 26.6585C8.88423 23.3417 5.78379 20.722 3.5694 18.1123C1.10082 15.2034 0 12.6015 0 9.67595C0 7.07961 0.832602 4.67393 2.34447 2.90207C3.94128 1.03066 6.20812 0 8.72737 0C11.5382 0 13.9864 1.33666 15.8075 3.86557C16.3165 4.57239 16.7083 5.27736 17 5.88497C17.2917 5.27736 17.6836 4.57239 18.1926 3.86557C20.0136 1.33673 22.4619 0 25.2727 0C27.792 0 30.0588 1.03066 31.6556 2.90207C33.1674 4.67386 34 7.07954 34 9.67595C34 12.6016 32.8992 15.2034 30.4307 18.1125C28.2161 20.7221 25.1157 23.3419 21.1904 26.6587C20.0002 27.6644 18.7695 28.7043 17.4676 29.8251C17.3322 29.9417 17.1661 30 17 30Z" fill="#FFC41F"/>
</svg>
