<svg width="31" height="30" viewBox="0 0 31 30" fill="none" xmlns="http://www.w3.org/2000/svg">
<g clip-path="url(#clip0_60_1472)">
<path d="M17.0335 15.0918C16.8691 15.0918 16.7047 15.029 16.5793 14.9035C16.3287 14.6527 16.3289 14.2462 16.5797 13.9955L18.7503 11.8265C18.8675 11.7094 19.0256 11.6421 19.1914 11.6388L24.924 11.5247C26.0778 11.5017 26.9972 10.9733 27.5132 10.0368C28.0618 9.04092 28.0564 7.75308 27.4997 6.83213C27.1585 6.26756 26.4653 5.60195 25.092 5.62816L24.221 5.64474C24.0475 5.64806 23.8782 5.58024 23.7548 5.4568C23.6314 5.33341 23.5636 5.16509 23.5669 4.99063L23.5834 4.11876C23.6241 2.06762 22.1408 1.31026 20.8582 1.28476C20.8349 1.28429 20.8116 1.28405 20.7883 1.28405C19.3098 1.28405 17.7281 2.21464 17.6869 4.28761L17.5728 10.0153C17.5694 10.1812 17.5021 10.3393 17.3848 10.4565L15.2125 12.6288C14.9617 12.8796 14.5553 12.8796 14.3045 12.6288C14.0538 12.3781 14.0538 11.9716 14.3045 11.7208L16.2941 9.73133L16.4031 4.26205C16.4363 2.59209 17.2189 1.58709 17.8695 1.03804C18.6767 0.356915 19.7765 -0.0211784 20.8837 0.000883816C21.95 0.0220706 22.9333 0.399872 23.6524 1.06477C24.4721 1.82254 24.8921 2.88719 24.8671 4.14363L24.8633 4.3482L25.0667 4.34435C26.6138 4.31394 27.8687 4.96069 28.5985 6.16787C29.3969 7.48863 29.4123 9.25051 28.6377 10.6564C27.9019 11.9921 26.5575 12.7764 24.9495 12.8085L19.4751 12.9175L17.4872 14.9039C17.3619 15.0291 17.1976 15.0918 17.0335 15.0918Z" fill="#5D5D5D"/>
<path d="M9.54203 30C9.37178 30 9.20847 29.9324 9.08806 29.8119L5.38044 26.1043C5.1297 25.8536 5.1297 25.4471 5.38044 25.1963C5.63118 24.9456 6.03769 24.9456 6.28843 25.1963L9.54203 28.45L10.5681 27.4239L9.81273 26.6684C9.56199 26.4177 9.56199 26.0112 9.81273 25.7605L11.7484 23.8248C11.8688 23.7044 12.0321 23.6367 12.2024 23.6367H12.2026C12.373 23.6368 12.5364 23.7046 12.6567 23.8251L13.4106 24.5801L14.4378 23.5539L11.1843 20.3004C10.9335 20.0497 10.9335 19.6432 11.1843 19.3924C11.4351 19.1417 11.8415 19.1417 12.0923 19.3924L15.7999 23.1001C15.9203 23.2205 15.988 23.3839 15.9879 23.5542C15.9879 23.7245 15.9202 23.8879 15.7997 24.0082L13.864 25.9423C13.7436 26.0626 13.5804 26.1301 13.4102 26.1301C13.4101 26.1301 13.41 26.1301 13.4099 26.1301C13.2396 26.1301 13.0763 26.0622 12.956 25.9418L12.2022 25.1869L11.1748 26.2144L11.9301 26.9698C12.1809 27.2206 12.1809 27.6271 11.9301 27.8778L9.99606 29.8119C9.87559 29.9324 9.71229 30 9.54203 30Z" fill="#5D5D5D"/>
<path d="M17.7654 14.2737L14.9347 11.443C14.6133 11.1217 14.1854 10.9447 13.7295 10.9447C13.2736 10.9447 12.8457 11.1217 12.5245 11.443L11.7518 12.2156C11.43 12.5374 11.2531 12.9662 11.2535 13.4231C11.2539 13.7945 11.3716 14.1469 11.5883 14.4373L1.64643 24.379C1.39569 24.6298 1.39569 25.0363 1.64643 25.287L3.92129 27.562C4.04666 27.6873 4.21096 27.75 4.37526 27.75C4.5395 27.75 4.70386 27.6873 4.82917 27.562L14.7718 17.621C15.0719 17.8435 15.4294 17.955 15.7871 17.955C16.2236 17.955 16.6604 17.7893 16.9932 17.4577L17.7645 16.6849C18.0859 16.3647 18.2632 15.9372 18.2637 15.4812C18.2642 15.0243 18.0871 14.5955 17.7654 14.2737ZM4.37532 26.2001L3.00839 24.8331L12.4835 15.3579L13.8508 16.726L4.37532 26.2001ZM12.6589 13.7169C12.498 13.5559 12.4993 13.2839 12.6598 13.1236C12.6598 13.1236 13.4318 12.3516 13.4325 12.3509C13.5939 12.1895 13.8656 12.1898 14.0267 12.3509C14.0267 12.3509 16.8475 15.1717 16.8575 15.1816C17.0165 15.3407 17.0152 15.6187 16.8571 15.7765L16.0858 16.5493C15.9215 16.713 15.6541 16.713 15.4908 16.5504L12.6589 13.7169Z" fill="#464646"/>
</g>
<defs>
<clipPath id="clip0_60_1472">
<rect width="30" height="30" fill="white" transform="translate(0.333374)"/>
</clipPath>
</defs>
</svg>
