<svg width="52" height="52" viewBox="0 0 52 52" fill="none" xmlns="http://www.w3.org/2000/svg">
<circle cx="26" cy="26" r="26" fill="white"/>
<g clip-path="url(#clip0_3_4402)">
<path d="M36.7122 31.7038C36.3107 32.623 35.8355 33.469 35.2849 34.2469C34.5344 35.3073 33.9198 36.0413 33.4462 36.4489C32.7121 37.118 31.9255 37.4606 31.0832 37.4801C30.4785 37.4801 29.7493 37.3096 28.9004 36.9637C28.0488 36.6194 27.2661 36.4489 26.5505 36.4489C25.8 36.4489 24.995 36.6194 24.134 36.9637C23.2717 37.3096 22.5771 37.4898 22.046 37.5077C21.2382 37.5418 20.4331 37.1894 19.6295 36.4489C19.1166 36.0056 18.475 35.2456 17.7064 34.1689C16.8818 33.0192 16.2039 31.686 15.6728 30.166C15.104 28.5242 14.8188 26.9344 14.8188 25.3952C14.8188 23.6321 15.2033 22.1115 15.9733 20.8372C16.5785 19.8136 17.3836 19.0062 18.3913 18.4135C19.3989 17.8208 20.4877 17.5187 21.6602 17.4994C22.3018 17.4994 23.1431 17.696 24.1886 18.0825C25.2311 18.4703 25.9006 18.667 26.1941 18.667C26.4135 18.667 27.1571 18.437 28.4178 17.9786C29.61 17.5535 30.6162 17.3774 31.4404 17.4468C33.674 17.6254 35.3521 18.4979 36.4681 20.0699C34.4705 21.2693 33.4823 22.9493 33.502 25.1044C33.52 26.783 34.1345 28.1799 35.3423 29.289C35.8896 29.8038 36.5008 30.2017 37.1809 30.4842C37.0334 30.9081 36.8777 31.3141 36.7122 31.7038V31.7038ZM31.5896 11.728C31.5896 13.0437 31.1045 14.2722 30.1377 15.4092C28.9709 16.761 27.5596 17.5421 26.0292 17.4188C26.0097 17.261 25.9984 17.0949 25.9984 16.9203C25.9984 15.6572 26.5533 14.3055 27.5386 13.2002C28.0306 12.6406 28.6562 12.1753 29.415 11.8041C30.1721 11.4385 30.8882 11.2363 31.5617 11.2017C31.5814 11.3776 31.5896 11.5535 31.5896 11.728V11.728Z" fill="black"/>
</g>
<defs>
<clipPath id="clip0_3_4402">
<rect x="12.8457" y="11.2017" width="26.3083" height="26.3083" rx="6" fill="white"/>
</clipPath>
</defs>
</svg>
