<svg width="54" height="52" viewBox="0 0 54 52" fill="none" xmlns="http://www.w3.org/2000/svg">
<ellipse cx="27" cy="26" rx="27" ry="26" fill="white"/>
<g clip-path="url(#clip0_3_4401)">
<path fill-rule="evenodd" clip-rule="evenodd" d="M39.8062 26.2803C39.8062 25.4058 39.723 24.565 39.5686 23.7578H27.2612V28.5281H34.294C33.9911 30.0696 33.0704 31.3756 31.6864 32.2501V35.3443H35.9097C38.3806 33.1974 39.8062 30.0359 39.8062 26.2803Z" fill="#4285F4"/>
<path fill-rule="evenodd" clip-rule="evenodd" d="M27.2612 38.3322C30.7895 38.3322 33.7476 37.2279 35.9097 35.3445L31.6864 32.2503C30.5163 32.9902 29.0194 33.4274 27.2612 33.4274C23.8577 33.4274 20.9769 31.2581 19.9493 28.3433H15.5835V31.5384C17.7337 35.5687 22.153 38.3322 27.2612 38.3322Z" fill="#34A853"/>
<path fill-rule="evenodd" clip-rule="evenodd" d="M19.9491 28.3432C19.6877 27.6033 19.5392 26.8129 19.5392 26.0001C19.5392 25.1873 19.6877 24.3969 19.9491 23.657V20.4619H15.5833C14.6982 22.1267 14.1934 24.0102 14.1934 26.0001C14.1934 27.99 14.6982 29.8735 15.5833 31.5383L19.9491 28.3432Z" fill="#FBBC05"/>
<path fill-rule="evenodd" clip-rule="evenodd" d="M27.2612 18.5727C29.1798 18.5727 30.9024 19.195 32.2567 20.4169L36.0047 16.8799C33.7416 14.89 30.7836 13.668 27.2612 13.668C22.153 13.668 17.7337 16.4315 15.5835 20.4618L19.9493 23.6569C20.9769 20.7421 23.8577 18.5727 27.2612 18.5727Z" fill="#EA4335"/>
</g>
<defs>
<clipPath id="clip0_3_4401">
<rect x="14.1934" y="13.668" width="25.6126" height="24.664" rx="6" fill="white"/>
</clipPath>
</defs>
</svg>
