<svg width="349" height="169" viewBox="0 0 349 169" fill="none" xmlns="http://www.w3.org/2000/svg">
<g opacity="0.35">
<g clip-path="url(#clip0_147_107)">
<path d="M64.1628 95.5527L10.6435 58.6652C9.50668 57.8817 7.94989 58.1681 7.16633 59.3049L6.45696 60.3341C5.67341 61.471 5.9598 63.0277 7.09665 63.8113L60.6159 100.699C61.7528 101.482 63.3096 101.196 64.0931 100.059L64.8025 99.0299C65.5861 97.893 65.2997 96.3362 64.1628 95.5527Z" fill="#FFC41F"/>
<path d="M3.86962 70.696C2.68219 72.4044 3.17308 74.7726 4.82916 75.9118L50.1147 107.124C51.7683 108.266 54.1568 107.883 55.3305 106.165L58.168 102.048L6.70712 66.5791L3.86962 70.696Z" fill="#FFC41F"/>
<path d="M2.4592 77.1476L-9.61432 94.6648C-12.2906 98.7273 -6.65911 103.025 -3.46266 99.3298C-3.46272 99.3299 10.3473 82.7513 10.3473 82.7513C9.68525 82.2122 2.79523 77.7227 2.4592 77.1476Z" fill="#FFC41F"/>
<path d="M41.759 104.401L31.1808 123.207C28.8683 127.501 34.8786 131.249 37.7297 127.296L49.8032 109.779C49.1597 109.704 42.4727 104.803 41.759 104.401Z" fill="#FFC41F"/>
</g>
<path d="M108.121 4.6306L43.2316 8.42546C41.8533 8.50606 40.8012 9.68879 40.8819 11.0671L40.9548 12.315C41.0354 13.6934 42.2182 14.7454 43.5965 14.6648L108.486 10.8699C109.864 10.7893 110.916 9.6066 110.835 8.22825L110.762 6.98038C110.682 5.60202 109.499 4.54999 108.121 4.6306Z" fill="#FFC41F"/>
<path d="M45.2823 22.079C45.3956 24.1565 47.2383 25.7228 49.2448 25.6037L104.151 22.3926C106.157 22.2771 107.806 20.5066 107.676 18.4301L107.384 13.4386L44.9904 17.0875L45.2823 22.079Z" fill="#FFC41F"/>
<path d="M48.1349 28.0352L49.377 49.2738C49.7627 54.1233 56.8462 54.0522 57.0967 49.1729C57.0967 49.173 57.8014 27.6076 57.8014 27.6076C56.9478 27.5892 48.7534 28.2823 48.1349 28.0352Z" fill="#FFC41F"/>
<path d="M95.8864 25.3803L99.1 46.7166C99.9147 51.5248 106.959 50.7874 106.779 45.9167L105.537 24.6782C104.983 25.015 96.6961 25.2584 95.8864 25.3803Z" fill="#FFC41F"/>
<path d="M255.787 78.2137L191.691 67.4119C190.329 67.1825 189.04 68.1002 188.81 69.4617L188.603 70.6943C188.373 72.0558 189.291 73.3456 190.652 73.575L254.749 84.3768C256.11 84.6062 257.4 83.6885 257.629 82.327L257.837 81.0943C258.066 79.7328 257.149 78.4431 255.787 78.2137Z" fill="#FFC41F"/>
<path d="M190.639 81.1785C190.285 83.2288 191.731 85.1673 193.713 85.4996L247.949 94.6395C249.93 94.9752 251.932 93.6179 252.27 91.5648L253.1 86.6343L191.47 76.2481L190.639 81.1785Z" fill="#FFC41F"/>
<path d="M192.088 87.6215L188.553 108.601C187.845 113.414 194.765 114.927 196.1 110.227C196.1 110.227 201.606 89.3648 201.606 89.3648C200.778 89.1562 192.636 88.0006 192.088 87.6215Z" fill="#FFC41F"/>
<path d="M239.225 95.7047L237.59 117.22C237.309 122.088 244.341 122.944 245.253 118.156L248.789 97.1769C248.174 97.3815 240.042 95.7668 239.225 95.7047Z" fill="#FFC41F"/>
<g clip-path="url(#clip1_147_107)">
<path d="M152.446 125.342L88.0512 134.189C86.6833 134.376 85.7268 135.638 85.9147 137.006L86.0848 138.244C86.2728 139.612 87.534 140.568 88.9018 140.38L153.297 131.534C154.665 131.346 155.621 130.085 155.433 128.717L155.263 127.478C155.075 126.111 153.814 125.154 152.446 125.342Z" fill="#FFC41F"/>
<path d="M91.1609 147.64C91.436 149.703 93.3953 151.121 95.3864 150.845L149.875 143.36C151.866 143.088 153.371 141.194 153.079 139.134L152.399 134.181L90.4804 142.687L91.1609 147.64Z" fill="#FFC41F"/>
<path d="M94.4696 153.356L97.3652 174.433C98.1281 179.237 105.184 178.614 105.053 173.73C105.054 173.73 104.073 152.175 104.073 152.175C103.221 152.224 95.1056 153.554 94.4696 153.356Z" fill="#FFC41F"/>
<path d="M141.868 146.983L146.737 168.003C147.924 172.733 154.89 171.449 154.33 166.607L151.435 145.53C150.909 145.909 142.666 146.798 141.868 146.983Z" fill="#FFC41F"/>
</g>
<g clip-path="url(#clip2_147_107)">
<path d="M285.33 121.848L255.422 179.558C254.787 180.784 255.265 182.293 256.491 182.928L257.601 183.504C258.827 184.139 260.336 183.66 260.971 182.434L290.879 124.724C291.514 123.498 291.036 121.989 289.81 121.354L288.7 120.779C287.474 120.143 285.965 120.622 285.33 121.848Z" fill="#FFC41F"/>
<path d="M268.205 184.775C270.049 185.74 272.337 184.957 273.26 183.171L298.567 134.339C299.493 132.556 298.814 130.234 296.963 129.284L292.524 126.984L263.766 182.475L268.205 184.775Z" fill="#FFC41F"/>
<path d="M296.91 142.97L316.891 151.114C321.44 152.872 324.407 146.44 320.129 144.106L301.24 134.317C301.246 134.964 297.219 142.211 296.91 142.97Z" fill="#FFC41F"/>
</g>
<g clip-path="url(#clip3_147_107)">
<path d="M347.329 -1.64114L290.964 30.7315C289.767 31.4191 289.354 32.9472 290.041 34.1444L290.664 35.2284C291.352 36.4257 292.88 36.8388 294.077 36.1512L350.442 3.77857C351.639 3.09092 352.052 1.56288 351.365 0.365586L350.742 -0.718356C350.055 -1.91565 348.527 -2.32879 347.329 -1.64114Z" fill="#FFC41F"/>
<path d="M298.896 42.0323C299.925 43.8405 302.274 44.4191 304.016 43.4165L351.709 16.0243C353.453 15.025 354.137 12.7047 353.093 10.9048L350.603 6.56902L296.406 37.6965L298.896 42.0323Z" fill="#FFC41F"/>
<path d="M304.108 46.0878L314.704 64.5364C317.215 68.7032 323.521 65.4764 321.566 60.9987C321.566 60.9988 312.567 41.3885 312.567 41.3885C311.795 41.7532 304.772 46.0327 304.108 46.0878Z" fill="#FFC41F"/>
<path d="M345.648 22.3881L358.052 40.0437C360.928 43.982 366.902 40.1764 364.565 35.899L353.97 17.4504C353.625 17.9989 346.319 21.9175 345.648 22.3881Z" fill="#FFC41F"/>
</g>
</g>
<defs>
<clipPath id="clip0_147_107">
<rect width="80" height="80" fill="white" transform="translate(14.3994 39.9999) rotate(34.576)"/>
</clipPath>
<clipPath id="clip1_147_107">
<rect width="80" height="80" fill="white" transform="translate(78.2392 117.872) rotate(-7.82233)"/>
</clipPath>
<clipPath id="clip2_147_107">
<rect width="80" height="80" fill="white" transform="translate(236.434 178.165) rotate(-62.6049)"/>
</clipPath>
<clipPath id="clip3_147_107">
<rect width="80" height="80" fill="white" transform="translate(275.745 19.2916) rotate(-29.8704)"/>
</clipPath>
</defs>
</svg>
