<svg width="24" height="24" viewBox="0 0 24 24" fill="none" xmlns="http://www.w3.org/2000/svg">
<path d="M6.78115 3.00111C5.35949 2.94544 3.46344 5.00354 3.23409 6.22067C1.74028 11.8924 7.68687 18.4186 12.8027 20.3496C15.2933 21.238 17.5774 21.3638 19.458 19.7862C20.7116 18.7157 21.6792 17.1285 20.3902 15.8458L19.1195 14.5784C18.3801 13.8089 17.033 13.8091 16.2937 14.5785L15.9744 14.8969C14.8813 15.9872 13.1427 16.0881 11.9302 15.1316C11.3655 14.686 10.8159 14.1975 10.2968 13.6797C9.77743 13.1616 9.28771 12.6134 8.84122 12.0503C7.88231 10.841 7.98348 9.10678 9.07651 8.01639L9.39577 7.69794C10.1672 6.96103 10.167 5.61627 9.39577 4.87929L8.12507 3.6118C7.71593 3.20366 7.27215 3.00111 6.78115 3.00111Z" stroke="#835A0F" stroke-width="1.5"/>
<path d="M12 3.02942C12 3.02942 16 1.99988 19 4.99995C22 8.00001 20.8509 11.9999 20.8509 11.9999" stroke="#835A0F" stroke-width="1.5" stroke-linecap="round"/>
<path d="M14 6.01312C14 6.01312 15.8634 5.80328 17.1056 7.0623C18.3478 8.32131 17.9337 10 17.9337 10" stroke="#835A0F" stroke-width="1.5" stroke-linecap="round"/>
</svg>
