<svg width="30" height="30" viewBox="0 0 30 30" fill="none" xmlns="http://www.w3.org/2000/svg">
<g clip-path="url(#clip0_60_1275)">
<path d="M8.81002 24.8357C6.93335 24.1277 6.225 23.2268 6.225 22.4671C6.225 22.2132 6.29612 21.8801 6.58668 21.5077C6.88397 21.1268 7.43247 20.6782 8.43211 20.2504C9.81966 19.6567 11.7549 19.261 13.8873 19.1579H16.1128C18.2453 19.261 20.1805 19.6566 21.568 20.2504L21.568 20.2504C22.5676 20.6782 23.1161 21.1268 23.4134 21.5077C23.704 21.8801 23.7751 22.2132 23.7751 22.4671C23.7751 23.2268 23.0667 24.1278 21.1901 24.8357C19.555 25.4524 17.3571 25.8032 15 25.8032C12.643 25.8032 10.4451 25.4524 8.81002 24.8357ZM8.81002 24.8357L8.59826 25.397L8.81002 24.8357Z" fill="#FFA200" fill-opacity="0.15" stroke="#FFDD33" stroke-width="1.2"/>
<path d="M26.2679 18.227C24.1543 17.1083 21.281 16.3346 18.1188 16.026L25.1166 0.911837C25.2228 0.68246 25.1846 0.412111 25.0189 0.221256C24.8533 0.0302837 24.591 -0.0455915 24.349 0.0273071L15.0001 2.84076L5.65107 0.0273071C5.40908 -0.0455331 5.14679 0.0304004 4.98115 0.221256C4.81551 0.412111 4.77722 0.68246 4.88344 0.911837L11.8813 16.026C8.71911 16.3346 5.84583 17.1083 3.73218 18.227C1.32542 19.5007 0 21.1737 0 22.9378C0 24.9211 1.6284 26.7415 4.58531 28.0637C7.37781 29.3124 11.0765 30 15 30C18.9235 30 22.6222 29.3124 25.4147 28.0637C28.3716 26.7415 30 24.9211 30 22.9378C30.0001 21.1737 28.6746 19.5007 26.2679 18.227ZM14.815 4.12597C14.9357 4.16233 15.0644 4.16233 15.1851 4.12597L23.3513 1.66849L15 19.7058L6.64877 1.66849L14.815 4.12597ZM24.8906 26.8915C22.2594 28.068 18.7468 28.716 15.0001 28.716C11.2533 28.716 7.74073 28.068 5.10955 26.8915C2.67839 25.8044 1.28404 24.3634 1.28404 22.9378C1.28404 21.6723 2.36678 20.4024 4.33277 19.3618C6.40019 18.2677 9.27814 17.5252 12.4544 17.2638L14.4174 21.5036C14.5225 21.7306 14.7498 21.8759 15 21.8759C15.2502 21.8759 15.4775 21.7306 15.5826 21.5036L17.5456 17.2638C20.7219 17.5251 23.5999 18.2676 25.6672 19.3618C27.6332 20.4023 28.7159 21.6723 28.7159 22.9378C28.716 24.3634 27.3217 25.8044 24.8906 26.8915Z" fill="#FFDD33"/>
<path d="M14.8151 4.12594C14.9357 4.1623 15.0644 4.1623 15.1851 4.12594L23.3513 1.66846L15 19.7058L6.6488 1.66846L14.8151 4.12594Z" fill="#FFA200" fill-opacity="0.15"/>
</g>
<defs>
<clipPath id="clip0_60_1275">
<rect width="30" height="30" fill="white"/>
</clipPath>
</defs>
</svg>
