<svg width="30" height="30" viewBox="0 0 30 30" fill="none" xmlns="http://www.w3.org/2000/svg">
<path d="M19.406 9.3496C19.0514 9.3496 18.764 9.06215 18.764 8.70758V6.05275C18.764 4.75511 17.7083 3.69933 16.4105 3.69933H13.5895C12.2918 3.69933 11.2361 4.75505 11.2361 6.05275V8.70273C11.2361 9.05731 10.9486 9.34476 10.594 9.34476C10.2395 9.34476 9.95203 9.05731 9.95203 8.70273V6.05275C9.95203 4.04707 11.5838 2.41528 13.5895 2.41528H16.4105C18.4163 2.41528 20.048 4.04707 20.048 6.05275V8.70758C20.048 9.06215 19.7606 9.3496 19.406 9.3496Z" fill="#5D5D5D"/>
<path d="M21.8212 9.48C21.4667 9.48 21.1792 9.19255 21.1792 8.83798V6.05276C21.1792 3.42327 19.04 1.28405 16.4105 1.28405H13.5895C10.9609 1.28405 8.82238 3.42327 8.82238 6.05276V8.83144C8.82238 9.18601 8.53493 9.47346 8.18035 9.47346C7.82578 9.47346 7.53833 9.18601 7.53833 8.83144V6.05276C7.53833 2.71523 10.2529 0 13.5895 0H16.4105C19.748 0 22.4633 2.71523 22.4633 6.05276V8.83798C22.4633 9.19255 22.1758 9.48 21.8212 9.48Z" fill="#5D5D5D"/>
<path d="M17.0934 23.0263H12.9065C12.7083 23.0263 12.5211 22.9347 12.3995 22.7781C12.2779 22.6214 12.2354 22.4174 12.2845 22.2253L13.182 18.7159C12.6005 18.2022 12.2646 17.4674 12.2646 16.6721C12.2646 15.1633 13.4921 13.9358 15.0008 13.9358C16.5087 13.9358 17.7354 15.1633 17.7354 16.6721C17.7354 17.4682 17.3995 18.2032 16.8181 18.7162L17.7154 22.2252C17.7646 22.4174 17.7221 22.6214 17.6005 22.778C17.4789 22.9347 17.2917 23.0263 17.0934 23.0263ZM13.7334 21.7423H16.2665L15.4674 18.6173C15.3974 18.3437 15.5145 18.0565 15.7558 17.9097C16.1913 17.6448 16.4513 17.1822 16.4513 16.6721C16.4513 15.8713 15.8006 15.2199 15.0008 15.2199C14.2 15.2199 13.5486 15.8713 13.5486 16.6721C13.5486 17.1815 13.8088 17.6443 14.2447 17.9101C14.4856 18.057 14.6024 18.344 14.5325 18.6173L13.7334 21.7423Z" fill="#5D5D5D"/>
<path d="M15.0027 30C15.0021 30 15.0017 30 15.0011 30C14.5006 29.9996 14.0276 29.7942 13.6694 29.4216L4.74313 20.1303C3.7766 19.125 3.13872 17.9924 2.84741 16.764C2.58442 15.6549 2.6181 14.4717 2.94483 13.3422C3.30074 12.1117 3.98438 10.9712 4.92167 10.0442C5.86726 9.10885 7.00446 8.45726 8.21041 8.15971C10.4434 7.60885 12.6438 8.3156 14.4061 10.1501L15.0028 10.7716L15.6007 10.1499C17.3586 8.31992 19.5546 7.61481 21.7841 8.16461C22.9907 8.46216 24.1288 9.11428 25.0755 10.0506C26.0138 10.9787 26.6982 12.1201 27.0547 13.3515C27.3813 14.4798 27.4157 15.6617 27.1538 16.7692C26.8637 17.9959 26.2277 19.1268 25.2634 20.1305L16.3374 29.4214C16.3371 29.4218 16.3367 29.4221 16.3364 29.4224C15.977 29.7949 15.5034 30 15.0027 30ZM9.66599 9.26469C9.2858 9.26469 8.9021 9.31156 8.518 9.40628C6.52259 9.8986 4.77862 11.6237 4.17833 13.6989C3.60599 15.6774 4.13543 17.6454 5.66893 19.2404L14.5952 28.5318C14.7091 28.6503 14.8538 28.7157 15.0023 28.7158H15.0027C15.1516 28.7158 15.297 28.6502 15.4122 28.5309L24.3375 19.2406C25.8665 17.6493 26.3934 15.6846 25.8213 13.7083C25.2198 11.6305 23.4738 9.90362 21.4767 9.41113C19.7113 8.97572 17.9533 9.55413 16.5264 11.0395L15.4653 12.1431C15.3442 12.2689 15.1771 12.3401 15.0025 12.3401C15.0024 12.3401 15.0023 12.3401 15.0023 12.3401C14.8276 12.34 14.6604 12.2688 14.5394 12.1427L13.4801 11.0394C12.3597 9.87344 11.0364 9.26469 9.66599 9.26469Z" fill="#464646"/>
</svg>
