<svg width="24" height="24" viewBox="0 0 24 24" fill="none" xmlns="http://www.w3.org/2000/svg">
<path d="M2.4105 2.82061L2.41047 2.82064C1.348 4.06579 0.75 5.72986 0.75 7.51514C0.75 9.28515 1.24814 10.9802 2.24468 12.5625L2.24469 12.5625C3.08918 13.9034 4.27686 15.1648 5.90237 16.4159C8.31037 18.2694 11.2313 19.7463 14.0337 21.069C14.0339 21.0691 14.0342 21.0692 14.0344 21.0693L17.4614 22.6772L17.4614 22.6772L17.4669 22.6798C17.7959 22.8374 18.1168 22.9936 18.4259 23.1481L18.426 23.1482C18.7855 23.328 19.2189 23.2658 19.5135 22.9921L20.0026 23.5186L19.5135 22.9921C19.808 22.7185 19.9018 22.2907 19.7489 21.9189L17.865 17.3378L17.6492 16.8129L18.0956 16.4625C21.452 13.8283 23.25 10.6065 23.25 7.51514C23.25 5.72986 22.652 4.06579 21.5895 2.82064L21.5895 2.82061C20.4456 1.47992 18.8711 0.75 17.1429 0.75C15.3897 0.75 14.3839 1.29723 14.189 1.45657L14.138 1.49823L14.0806 1.53038C13.4676 1.87344 12.9556 2.29593 12.5376 2.72568L12 3.27844L11.4624 2.72569C10.4861 1.72199 8.99808 0.75 6.85714 0.75C5.12886 0.75 3.55435 1.47992 2.4105 2.82061Z" stroke="#8E8E8E" stroke-width="1.5"/>
<circle cx="8" cy="10" r="1" fill="#8E8E8E"/>
<circle cx="12" cy="10" r="1" fill="#8E8E8E"/>
<circle cx="16" cy="10" r="1" fill="#8E8E8E"/>
</svg>
