<svg width="31" height="30" viewBox="0 0 31 30" fill="none" xmlns="http://www.w3.org/2000/svg">
<g clip-path="url(#clip0_60_1535)">
<path d="M10.701 18.6393C10.5937 18.6393 10.4849 18.6125 10.3848 18.556C9.99473 18.3358 9.38716 17.9756 8.6498 17.4807H2.3355C2.09081 17.4807 1.86727 17.3422 1.75834 17.1231C1.64941 16.904 1.67396 16.6421 1.82162 16.4471L4.0176 13.5467C1.78435 11.0728 0.655632 8.54507 0.666707 5.99858C0.675379 4.32052 1.32409 2.71718 2.44953 1.59467C4.27975 -0.295034 7.41929 -0.503633 9.53916 1.01815C10.1095 1.41572 10.596 1.90768 10.981 2.47178C11.3659 1.90774 11.8524 1.41572 12.4228 1.01815C13.3737 0.355316 14.4913 0.00497437 15.6546 0.00497437C18.7727 0.00497437 21.3095 2.5394 21.3095 5.65456C21.3095 8.08006 20.3557 10.5751 18.5511 12.87C18.3311 13.1498 17.926 13.1983 17.6461 12.9783C17.3663 12.7583 17.3177 12.353 17.5378 12.0732C19.1851 9.97831 20.0204 7.81878 20.0204 5.65462C19.9586 0.843064 13.3767 -0.367809 11.5818 4.08075C11.4856 4.32878 11.2469 4.49226 10.9809 4.49226C10.7148 4.49226 10.4761 4.32878 10.3799 4.08069C9.73246 2.41008 8.08904 1.28892 6.2952 1.29401C3.76529 1.25282 1.90735 3.58398 1.95487 6.06367C1.96495 8.37585 3.09835 10.7293 5.3241 13.059C5.5426 13.2877 5.56282 13.6412 5.37185 13.8934L3.63187 16.1915H8.84709C8.97646 16.1915 9.10285 16.2305 9.20979 16.3033C10.0256 16.8586 10.6931 17.2496 11.0183 17.4333C11.3284 17.6083 11.4378 18.0014 11.2628 18.3114C11.1445 18.5213 10.9259 18.6393 10.701 18.6393Z" fill="#5D5D5D"/>
<path d="M25.0917 19.4966H15.6322C14.7779 19.4649 14.7785 18.2389 15.6322 18.2075H25.0917C25.9459 18.2392 25.9453 19.4653 25.0917 19.4966Z" fill="#5D5D5D"/>
<path d="M23.671 22.7546H17.0527C16.1984 22.7229 16.1991 21.497 17.0527 21.4655H23.671C24.5253 21.4972 24.5246 22.7233 23.671 22.7546Z" fill="#5D5D5D"/>
<path d="M20.3415 29.995C20.2398 29.995 20.1391 29.9709 20.0477 29.9242C19.9461 29.8722 17.5293 28.6247 15.0784 26.4655C12.2503 23.9774 10.0087 20.8091 10.0238 17.2238C10.0324 15.5458 10.6811 13.9424 11.8066 12.8199C13.6368 10.9302 16.7765 10.7216 18.8963 12.2434C19.4666 12.641 19.9531 13.1329 20.338 13.697C20.723 13.133 21.2094 12.641 21.7798 12.2434C22.7307 11.5806 23.8483 11.2302 25.0116 11.2302C28.1298 11.2302 30.6665 13.7646 30.6665 16.8799C30.6665 19.2662 29.8065 21.6034 28.1093 23.8336L30.5304 27.0314C30.6781 27.2265 30.7026 27.4883 30.5937 27.7074C30.4848 27.9265 30.2612 28.065 30.0165 28.065H23.6606C22.8191 28.6717 22.0788 29.1275 21.5938 29.4094C20.6547 29.9552 20.5022 29.9781 20.4371 29.9878C20.4053 29.9926 20.3733 29.995 20.3415 29.995ZM11.312 17.289C11.2497 22.3807 17.1448 26.8673 20.3534 28.624C20.8086 28.3838 21.8297 27.8105 23.0697 26.9008C23.1803 26.8197 23.3138 26.7759 23.451 26.7759H28.7202L26.7816 24.2154C26.6025 23.9789 26.608 23.6509 26.7948 23.4205C28.5086 21.3062 29.3776 19.1056 29.3776 16.8798C29.3158 12.0683 22.7338 10.8573 20.939 15.3059C20.7289 15.8512 19.9469 15.8509 19.7371 15.3059C19.0896 13.6353 17.4462 12.5142 15.6524 12.5193C13.1225 12.4781 11.2645 14.8092 11.312 17.289Z" fill="#464646"/>
</g>
<defs>
<clipPath id="clip0_60_1535">
<rect width="30" height="30" fill="white" transform="translate(0.666626)"/>
</clipPath>
</defs>
</svg>
