<svg width="30" height="30" viewBox="0 0 30 30" fill="none" xmlns="http://www.w3.org/2000/svg">
<path d="M8.14485 8.85393C8.14072 8.84742 8.13833 8.83971 8.13833 8.83144V6.05276C8.13833 3.04645 10.5844 0.6 13.5895 0.6H16.4105C19.4166 0.6 21.8633 3.04661 21.8633 6.05276V8.83798C21.8633 8.84571 21.8612 8.85295 21.8575 8.85918C20.8326 8.53409 19.8858 8.60588 19.3711 8.72668C19.3666 8.71998 19.364 8.71191 19.364 8.70327V6.04845C19.364 4.41944 18.0396 3.09502 16.4105 3.09502H13.5895C11.9604 3.09502 10.6361 4.41937 10.6361 6.04845V8.69843C10.6361 8.71084 10.6307 8.722 10.6221 8.72969C9.66685 8.51394 8.67094 8.69579 8.14485 8.85393Z" fill="#FFA200" fill-opacity="0.15" stroke="#FFDD33" stroke-width="1.2"/>
<path d="M12.8658 22.374L12.8658 22.3739L13.7633 18.8645L13.8542 18.5091L13.5792 18.2662C13.1266 17.8664 12.8646 17.2953 12.8646 16.6721C12.8646 15.4947 13.8234 14.5358 15.0008 14.5358C16.177 14.5358 17.1354 15.4943 17.1354 16.6721C17.1354 17.2963 16.8733 17.8673 16.4211 18.2663L16.1459 18.5092L16.2368 18.8649L17.1341 22.3739L17.1341 22.3739C17.1373 22.3864 17.1346 22.3998 17.1266 22.4099L17.1265 22.4101C17.1186 22.4204 17.1064 22.4263 17.0934 22.4263H12.9065C12.8937 22.4263 12.8815 22.4204 12.8735 22.4102C12.8653 22.3997 12.8627 22.3863 12.8658 22.374Z" fill="#FFA200" fill-opacity="0.15" stroke="#FFDD33" stroke-width="1.2"/>
<path d="M5.1023 19.7852L5.10216 19.7851C4.19066 18.8371 3.60069 17.782 3.33203 16.6491C3.08949 15.6263 3.11961 14.5303 3.42327 13.4806L3.42327 13.4806C3.75485 12.3342 4.39321 11.2674 5.27192 10.3983L5.27192 10.3983C6.1583 9.52151 7.2172 8.91776 8.32972 8.64326C10.3688 8.14024 12.392 8.7725 14.0469 10.4951C14.0469 10.4951 14.0469 10.4951 14.0469 10.4951L14.6436 11.1165L15.0026 11.4904L15.3618 11.1168L15.9597 10.4951L15.9599 10.4949C17.6102 8.77695 19.629 8.14614 21.6649 8.64818C22.7779 8.92267 23.8377 9.52692 24.7252 10.4047L24.7253 10.4048C25.605 11.2749 26.2442 12.3427 26.5763 13.4899L26.5763 13.49C26.8799 14.5387 26.9106 15.6334 26.6691 16.6546C26.4016 17.7858 25.8134 18.8391 24.9042 19.7854L24.9042 19.7854L15.9782 29.0764L15.978 29.0766C15.9776 29.077 15.9772 29.0774 15.9769 29.0778C15.9766 29.078 15.9764 29.0783 15.9761 29.0785C15.9758 29.0789 15.9754 29.0793 15.975 29.0797C15.7064 29.3566 15.3618 29.5019 15.0027 29.5019H15.0027H15.0026H15.0026H15.0026H15.0026H15.0026H15.0026H15.0025H15.0025H15.0025H15.0025H15.0025H15.0025H15.0025H15.0024H15.0024H15.0024H15.0024H15.0024H15.0024H15.0023H15.0023H15.0023H15.0023H15.0023H15.0023H15.0023H15.0022H15.0022H15.0022H15.0022H15.0022H15.0022H15.0022H15.0021H15.0021H15.0021H15.0021H15.0021H15.0021H15.0021H15.002H15.002H15.002H15.002H15.002H15.002H15.002H15.0019H15.0019H15.0019H15.0019H15.0019H15.0019H15.0019H15.0018H15.0018H15.0018H15.0018H15.0018H15.0018H15.0018H15.0017H15.0017H15.0017H15.0017H15.0017H15.0017H15.0016H15.0016H15.0016H15.0016H15.0016H15.0016H15.0016C14.6413 29.5017 14.2964 29.3551 14.0285 29.0765C14.0285 29.0765 14.0284 29.0765 14.0284 29.0764L5.1023 19.7852ZM8.39874 8.92272L8.39869 8.92273C6.21992 9.46029 4.34653 11.3251 3.69989 13.5605C3.07377 15.7249 3.66426 17.874 5.3099 19.5856L14.236 28.8768L14.2362 28.877C14.4327 29.0814 14.7027 29.2137 15.0019 29.2139H15.0023H15.0027C15.3027 29.2139 15.5731 29.0812 15.7704 28.8769L15.7713 28.876L24.6966 19.5857C26.3379 17.8774 26.9256 15.7316 26.2997 13.5698C25.6518 11.3319 23.7765 9.4653 21.5959 8.92757C19.6319 8.44316 17.6978 9.10122 16.1674 10.6943C16.1674 10.6943 16.1673 10.6944 16.1672 10.6944L15.1063 11.7978L15.1063 11.7979C15.0791 11.8261 15.0416 11.842 15.0025 11.842H15.0025H15.0025H15.0025H15.0025H15.0025H15.0024H15.0024H15.0024C14.9633 11.842 14.9258 11.8261 14.8988 11.7978L14.8987 11.7978L13.8393 10.6944L13.8392 10.6943C12.6414 9.44774 11.194 8.76663 9.66599 8.76663C9.24459 8.76663 8.82087 8.81861 8.39874 8.92272ZM2.94504 13.3422L2.94493 13.3422L2.94504 13.3422Z" fill="black" stroke="#FFDD33" stroke-width="0.996109"/>
</svg>
