<svg width="90" height="90" viewBox="0 0 90 90" fill="none" xmlns="http://www.w3.org/2000/svg">
<path d="M9.81512 32.7075H38.1948" stroke="#757575" stroke-width="2" stroke-miterlimit="10"/>
<path d="M51.7943 32.7075H80.1781" stroke="#757575" stroke-width="2" stroke-miterlimit="10"/>
<path d="M37.5875 49.2617C35.2741 57.8375 26.4465 62.9141 17.8708 60.6005C9.29517 58.287 4.21843 49.4595 6.53206 40.8838" stroke="#5D5D5D" stroke-width="2" stroke-miterlimit="10" stroke-linecap="round" stroke-linejoin="round"/>
<path d="M18.6894 16.4004L39.3931 21.9857" stroke="#5D5D5D" stroke-width="2" stroke-miterlimit="10" stroke-linecap="round" stroke-linejoin="round"/>
<path d="M39.3931 21.9858C35.9022 34.9256 41.0783 36.322 37.5875 49.2618" stroke="#5D5D5D" stroke-width="2" stroke-miterlimit="10" stroke-linecap="round" stroke-linejoin="round"/>
<path d="M18.6894 16.4004C15.1986 29.3402 10.0227 27.9439 6.53186 40.8837" stroke="#5D5D5D" stroke-width="2" stroke-miterlimit="10" stroke-linecap="round" stroke-linejoin="round"/>
<path d="M12.2855 81.3045L17.8706 60.6006" stroke="#5D5D5D" stroke-width="2" stroke-miterlimit="10"/>
<path d="M1.93359 78.5117L22.6373 84.097" stroke="#5D5D5D" stroke-width="2" stroke-miterlimit="10" stroke-linecap="round" stroke-linejoin="round"/>
<path d="M83.4592 40.876C85.7748 49.4511 80.7003 58.2799 72.125 60.5955C63.5499 62.911 54.7211 57.8366 52.4055 49.2613" stroke="#5D5D5D" stroke-width="2" stroke-miterlimit="10" stroke-linecap="round" stroke-linejoin="round"/>
<path d="M50.5935 21.9857L71.2958 16.3955" stroke="#5D5D5D" stroke-width="2" stroke-miterlimit="10" stroke-linecap="round" stroke-linejoin="round"/>
<path d="M71.2958 16.3955C74.7897 29.3346 79.9654 27.937 83.4592 40.8759" stroke="#5D5D5D" stroke-width="2" stroke-miterlimit="10" stroke-linecap="round" stroke-linejoin="round"/>
<path d="M50.5935 21.9858C54.0873 34.9247 48.9118 36.3224 52.4056 49.2613" stroke="#5D5D5D" stroke-width="2" stroke-miterlimit="10" stroke-linecap="round" stroke-linejoin="round"/>
<path d="M77.7152 81.2977L72.125 60.5952" stroke="#5D5D5D" stroke-width="2" stroke-miterlimit="10"/>
<path d="M67.364 84.0931L88.0664 78.5029" stroke="#5D5D5D" stroke-width="2" stroke-miterlimit="10" stroke-linecap="round" stroke-linejoin="round"/>
<path d="M34.2781 5.90283L39.6391 11.2638" stroke="#757575" stroke-width="2" stroke-miterlimit="10" stroke-linecap="round" stroke-linejoin="round"/>
<path d="M50.361 11.2638L55.7219 5.90283" stroke="#757575" stroke-width="2" stroke-miterlimit="10" stroke-linecap="round" stroke-linejoin="round"/>
<circle cx="28.5597" cy="43.6084" r="1.93359" fill="#757575"/>
<circle cx="17.8378" cy="48.7905" r="1.93359" fill="#757575"/>
<circle cx="61.2615" cy="43.4297" r="1.93359" fill="#757575"/>
<circle cx="71.9835" cy="48.7905" r="1.93359" fill="#757575"/>
</svg>
