<svg width="29" height="29" viewBox="0 0 29 29" fill="none" xmlns="http://www.w3.org/2000/svg">
<path d="M3.276 28.5C2.43764 28.5 1.59928 28.1801 0.95957 27.5404C-0.319857 26.261 -0.319857 24.1867 0.95957 22.9072L22.907 0.95958C24.1867 -0.31986 26.2604 -0.31986 27.5401 0.95958C28.8196 2.23902 28.8196 4.31335 27.5401 5.59279L5.59272 27.5404C4.95271 28.1801 4.11465 28.5 3.276 28.5Z" fill="#FF4747"/>
<path d="M25.2246 28.5C24.3863 28.5 23.5479 28.1801 22.9082 27.5404L0.960791 5.59279C-0.318636 4.31335 -0.318636 2.23902 0.960791 0.95958C2.24052 -0.31986 4.31423 -0.31986 5.59395 0.95958L27.5414 22.9072C28.8208 24.1867 28.8208 26.261 27.5414 27.5404C26.9011 28.1801 26.063 28.5 25.2246 28.5Z" fill="#FF4747"/>
</svg>
